<mxfile host="app.diagrams.net" modified="2023-01-22T13:28:20.366Z" agent="5.0 (X11; Ubuntu)" etag="jBvNW_IAfao2AJ9rPYbp" version="20.5.1" type="github">
  <diagram name="Page-1" id="e56a1550-8fbb-45ad-956c-1786394a9013">
    <mxGraphModel dx="1797" dy="1057" grid="1" gridSize="10" guides="1" tooltips="1" connect="1" arrows="1" fold="1" page="1" pageScale="1" pageWidth="2000" pageHeight="2000" background="none" math="0" shadow="0">
      <root>
        <mxCell id="0" />
        <mxCell id="1" parent="0" />
        <mxCell id="FpNZG0VmVVz_sjIysyUu-1" value="Patient" style="swimlane;childLayout=stackLayout;horizontal=1;startSize=30;horizontalStack=0;rounded=1;fontSize=14;fontStyle=0;strokeWidth=2;resizeParent=0;resizeLast=1;shadow=0;dashed=0;align=center;" vertex="1" parent="1">
          <mxGeometry x="580" y="460" width="160" height="160" as="geometry" />
        </mxCell>
        <mxCell id="FpNZG0VmVVz_sjIysyUu-4" value="" style="shape=table;startSize=0;container=1;collapsible=1;childLayout=tableLayout;fixedRows=1;rowLines=0;fontStyle=0;align=center;resizeLast=1;strokeColor=none;fillColor=none;collapsible=0;" vertex="1" parent="FpNZG0VmVVz_sjIysyUu-1">
          <mxGeometry y="30" width="160" height="130" as="geometry" />
        </mxCell>
        <mxCell id="FpNZG0VmVVz_sjIysyUu-5" value="" style="shape=tableRow;horizontal=0;startSize=0;swimlaneHead=0;swimlaneBody=0;fillColor=none;collapsible=0;dropTarget=0;points=[[0,0.5],[1,0.5]];portConstraint=eastwest;top=0;left=0;right=0;bottom=1;" vertex="1" parent="FpNZG0VmVVz_sjIysyUu-4">
          <mxGeometry width="160" height="30" as="geometry" />
        </mxCell>
        <mxCell id="FpNZG0VmVVz_sjIysyUu-6" value="PK" style="shape=partialRectangle;connectable=0;fillColor=none;top=0;left=0;bottom=0;right=0;fontStyle=1;overflow=hidden;" vertex="1" parent="FpNZG0VmVVz_sjIysyUu-5">
          <mxGeometry width="30" height="30" as="geometry">
            <mxRectangle width="30" height="30" as="alternateBounds" />
          </mxGeometry>
        </mxCell>
        <mxCell id="FpNZG0VmVVz_sjIysyUu-7" value="patient_id" style="shape=partialRectangle;connectable=0;fillColor=none;top=0;left=0;bottom=0;right=0;align=left;spacingLeft=6;fontStyle=5;overflow=hidden;" vertex="1" parent="FpNZG0VmVVz_sjIysyUu-5">
          <mxGeometry x="30" width="130" height="30" as="geometry">
            <mxRectangle width="130" height="30" as="alternateBounds" />
          </mxGeometry>
        </mxCell>
        <mxCell id="FpNZG0VmVVz_sjIysyUu-208" value="" style="shape=tableRow;horizontal=0;startSize=0;swimlaneHead=0;swimlaneBody=0;fillColor=none;collapsible=0;dropTarget=0;points=[[0,0.5],[1,0.5]];portConstraint=eastwest;top=0;left=0;right=0;bottom=0;rounded=0;shadow=0;sketch=0;fontSize=12;" vertex="1" parent="FpNZG0VmVVz_sjIysyUu-4">
          <mxGeometry y="30" width="160" height="30" as="geometry" />
        </mxCell>
        <mxCell id="FpNZG0VmVVz_sjIysyUu-209" value="" style="shape=partialRectangle;connectable=0;fillColor=none;top=0;left=0;bottom=0;right=0;editable=1;overflow=hidden;rounded=0;shadow=0;sketch=0;fontSize=12;" vertex="1" parent="FpNZG0VmVVz_sjIysyUu-208">
          <mxGeometry width="30" height="30" as="geometry">
            <mxRectangle width="30" height="30" as="alternateBounds" />
          </mxGeometry>
        </mxCell>
        <mxCell id="FpNZG0VmVVz_sjIysyUu-210" value="state" style="shape=partialRectangle;connectable=0;fillColor=none;top=0;left=0;bottom=0;right=0;align=left;spacingLeft=6;overflow=hidden;rounded=0;shadow=0;sketch=0;fontSize=12;" vertex="1" parent="FpNZG0VmVVz_sjIysyUu-208">
          <mxGeometry x="30" width="130" height="30" as="geometry">
            <mxRectangle width="130" height="30" as="alternateBounds" />
          </mxGeometry>
        </mxCell>
        <mxCell id="FpNZG0VmVVz_sjIysyUu-211" value="" style="shape=tableRow;horizontal=0;startSize=0;swimlaneHead=0;swimlaneBody=0;fillColor=none;collapsible=0;dropTarget=0;points=[[0,0.5],[1,0.5]];portConstraint=eastwest;top=0;left=0;right=0;bottom=0;rounded=0;shadow=0;sketch=0;fontSize=12;" vertex="1" parent="FpNZG0VmVVz_sjIysyUu-4">
          <mxGeometry y="60" width="160" height="30" as="geometry" />
        </mxCell>
        <mxCell id="FpNZG0VmVVz_sjIysyUu-212" value="" style="shape=partialRectangle;connectable=0;fillColor=none;top=0;left=0;bottom=0;right=0;editable=1;overflow=hidden;rounded=0;shadow=0;sketch=0;fontSize=12;" vertex="1" parent="FpNZG0VmVVz_sjIysyUu-211">
          <mxGeometry width="30" height="30" as="geometry">
            <mxRectangle width="30" height="30" as="alternateBounds" />
          </mxGeometry>
        </mxCell>
        <mxCell id="FpNZG0VmVVz_sjIysyUu-213" value="district" style="shape=partialRectangle;connectable=0;fillColor=none;top=0;left=0;bottom=0;right=0;align=left;spacingLeft=6;overflow=hidden;rounded=0;shadow=0;sketch=0;fontSize=12;" vertex="1" parent="FpNZG0VmVVz_sjIysyUu-211">
          <mxGeometry x="30" width="130" height="30" as="geometry">
            <mxRectangle width="130" height="30" as="alternateBounds" />
          </mxGeometry>
        </mxCell>
        <mxCell id="FpNZG0VmVVz_sjIysyUu-214" value="" style="shape=tableRow;horizontal=0;startSize=0;swimlaneHead=0;swimlaneBody=0;fillColor=none;collapsible=0;dropTarget=0;points=[[0,0.5],[1,0.5]];portConstraint=eastwest;top=0;left=0;right=0;bottom=0;rounded=0;shadow=0;sketch=0;fontSize=12;" vertex="1" parent="FpNZG0VmVVz_sjIysyUu-4">
          <mxGeometry y="90" width="160" height="30" as="geometry" />
        </mxCell>
        <mxCell id="FpNZG0VmVVz_sjIysyUu-215" value="" style="shape=partialRectangle;connectable=0;fillColor=none;top=0;left=0;bottom=0;right=0;editable=1;overflow=hidden;rounded=0;shadow=0;sketch=0;fontSize=12;" vertex="1" parent="FpNZG0VmVVz_sjIysyUu-214">
          <mxGeometry width="30" height="30" as="geometry">
            <mxRectangle width="30" height="30" as="alternateBounds" />
          </mxGeometry>
        </mxCell>
        <mxCell id="FpNZG0VmVVz_sjIysyUu-216" value="status" style="shape=partialRectangle;connectable=0;fillColor=none;top=0;left=0;bottom=0;right=0;align=left;spacingLeft=6;overflow=hidden;rounded=0;shadow=0;sketch=0;fontSize=12;" vertex="1" parent="FpNZG0VmVVz_sjIysyUu-214">
          <mxGeometry x="30" width="130" height="30" as="geometry">
            <mxRectangle width="130" height="30" as="alternateBounds" />
          </mxGeometry>
        </mxCell>
        <mxCell id="FpNZG0VmVVz_sjIysyUu-20" value="Symptom" style="swimlane;childLayout=stackLayout;horizontal=1;startSize=30;horizontalStack=0;rounded=1;fontSize=14;fontStyle=0;strokeWidth=2;resizeParent=0;resizeLast=1;shadow=0;dashed=0;align=center;rotation=0;" vertex="1" parent="1">
          <mxGeometry x="200" y="230" width="160" height="120" as="geometry" />
        </mxCell>
        <mxCell id="FpNZG0VmVVz_sjIysyUu-22" value="" style="shape=table;startSize=0;container=1;collapsible=1;childLayout=tableLayout;fixedRows=1;rowLines=0;fontStyle=0;align=center;resizeLast=1;strokeColor=none;fillColor=none;collapsible=0;rotation=0;" vertex="1" parent="FpNZG0VmVVz_sjIysyUu-20">
          <mxGeometry y="30" width="160" height="90" as="geometry" />
        </mxCell>
        <mxCell id="FpNZG0VmVVz_sjIysyUu-23" value="" style="shape=tableRow;horizontal=0;startSize=0;swimlaneHead=0;swimlaneBody=0;fillColor=none;collapsible=0;dropTarget=0;points=[[0,0.5],[1,0.5]];portConstraint=eastwest;top=0;left=0;right=0;bottom=1;rotation=0;" vertex="1" parent="FpNZG0VmVVz_sjIysyUu-22">
          <mxGeometry width="160" height="30" as="geometry" />
        </mxCell>
        <mxCell id="FpNZG0VmVVz_sjIysyUu-24" value="PK" style="shape=partialRectangle;connectable=0;fillColor=none;top=0;left=0;bottom=0;right=0;fontStyle=1;overflow=hidden;rotation=0;" vertex="1" parent="FpNZG0VmVVz_sjIysyUu-23">
          <mxGeometry width="30" height="30" as="geometry">
            <mxRectangle width="30" height="30" as="alternateBounds" />
          </mxGeometry>
        </mxCell>
        <mxCell id="FpNZG0VmVVz_sjIysyUu-25" value="symptom_id" style="shape=partialRectangle;connectable=0;fillColor=none;top=0;left=0;bottom=0;right=0;align=left;spacingLeft=6;fontStyle=5;overflow=hidden;rotation=0;" vertex="1" parent="FpNZG0VmVVz_sjIysyUu-23">
          <mxGeometry x="30" width="130" height="30" as="geometry">
            <mxRectangle width="130" height="30" as="alternateBounds" />
          </mxGeometry>
        </mxCell>
        <mxCell id="FpNZG0VmVVz_sjIysyUu-29" value="" style="shape=tableRow;horizontal=0;startSize=0;swimlaneHead=0;swimlaneBody=0;fillColor=none;collapsible=0;dropTarget=0;points=[[0,0.5],[1,0.5]];portConstraint=eastwest;top=0;left=0;right=0;bottom=0;rotation=0;" vertex="1" parent="FpNZG0VmVVz_sjIysyUu-22">
          <mxGeometry y="30" width="160" height="30" as="geometry" />
        </mxCell>
        <mxCell id="FpNZG0VmVVz_sjIysyUu-30" value="" style="shape=partialRectangle;connectable=0;fillColor=none;top=0;left=0;bottom=0;right=0;editable=1;overflow=hidden;rotation=0;" vertex="1" parent="FpNZG0VmVVz_sjIysyUu-29">
          <mxGeometry width="30" height="30" as="geometry">
            <mxRectangle width="30" height="30" as="alternateBounds" />
          </mxGeometry>
        </mxCell>
        <mxCell id="FpNZG0VmVVz_sjIysyUu-31" value="symptom_name" style="shape=partialRectangle;connectable=0;fillColor=none;top=0;left=0;bottom=0;right=0;align=left;spacingLeft=6;overflow=hidden;rotation=0;" vertex="1" parent="FpNZG0VmVVz_sjIysyUu-29">
          <mxGeometry x="30" width="130" height="30" as="geometry">
            <mxRectangle width="130" height="30" as="alternateBounds" />
          </mxGeometry>
        </mxCell>
        <mxCell id="FpNZG0VmVVz_sjIysyUu-41" value="" style="shape=table;startSize=0;container=1;collapsible=1;childLayout=tableLayout;fixedRows=1;rowLines=0;fontStyle=0;align=center;resizeLast=1;strokeColor=none;fillColor=none;collapsible=0;rotation=0;" vertex="1" parent="FpNZG0VmVVz_sjIysyUu-20">
          <mxGeometry y="120" width="160" as="geometry" />
        </mxCell>
        <mxCell id="FpNZG0VmVVz_sjIysyUu-42" value="" style="shape=tableRow;horizontal=0;startSize=0;swimlaneHead=0;swimlaneBody=0;fillColor=none;collapsible=0;dropTarget=0;points=[[0,0.5],[1,0.5]];portConstraint=eastwest;top=0;left=0;right=0;bottom=1;rotation=0;" vertex="1" visible="0" parent="FpNZG0VmVVz_sjIysyUu-41">
          <mxGeometry y="-1" width="160" height="30" as="geometry" />
        </mxCell>
        <mxCell id="FpNZG0VmVVz_sjIysyUu-43" value="PK" style="shape=partialRectangle;connectable=0;fillColor=none;top=0;left=0;bottom=0;right=0;fontStyle=1;overflow=hidden;rotation=0;" vertex="1" parent="FpNZG0VmVVz_sjIysyUu-42">
          <mxGeometry width="30" height="30" as="geometry">
            <mxRectangle width="30" height="30" as="alternateBounds" />
          </mxGeometry>
        </mxCell>
        <mxCell id="FpNZG0VmVVz_sjIysyUu-44" value="symptom_id" style="shape=partialRectangle;connectable=0;fillColor=none;top=0;left=0;bottom=0;right=0;align=left;spacingLeft=6;fontStyle=5;overflow=hidden;rotation=0;" vertex="1" parent="FpNZG0VmVVz_sjIysyUu-42">
          <mxGeometry x="29" width="130" height="30" as="geometry">
            <mxRectangle width="130" height="30" as="alternateBounds" />
          </mxGeometry>
        </mxCell>
        <mxCell id="FpNZG0VmVVz_sjIysyUu-45" value="" style="shape=tableRow;horizontal=0;startSize=0;swimlaneHead=0;swimlaneBody=0;fillColor=none;collapsible=0;dropTarget=0;points=[[0,0.5],[1,0.5]];portConstraint=eastwest;top=0;left=0;right=0;bottom=0;rotation=0;" vertex="1" visible="0" parent="FpNZG0VmVVz_sjIysyUu-41">
          <mxGeometry x="1" y="30" width="160" height="30" as="geometry" />
        </mxCell>
        <mxCell id="FpNZG0VmVVz_sjIysyUu-46" value="" style="shape=partialRectangle;connectable=0;fillColor=none;top=0;left=0;bottom=0;right=0;editable=1;overflow=hidden;rotation=0;" vertex="1" parent="FpNZG0VmVVz_sjIysyUu-45">
          <mxGeometry width="30" height="30" as="geometry">
            <mxRectangle width="30" height="30" as="alternateBounds" />
          </mxGeometry>
        </mxCell>
        <mxCell id="FpNZG0VmVVz_sjIysyUu-47" value="symptom_name" style="shape=partialRectangle;connectable=0;fillColor=none;top=0;left=0;bottom=0;right=0;align=left;spacingLeft=6;overflow=hidden;rotation=0;" vertex="1" parent="FpNZG0VmVVz_sjIysyUu-45">
          <mxGeometry x="29" width="130" height="30" as="geometry">
            <mxRectangle width="130" height="30" as="alternateBounds" />
          </mxGeometry>
        </mxCell>
        <mxCell id="FpNZG0VmVVz_sjIysyUu-48" value="" style="shape=table;startSize=0;container=1;collapsible=1;childLayout=tableLayout;fixedRows=1;rowLines=0;fontStyle=0;align=center;resizeLast=1;strokeColor=none;fillColor=none;collapsible=0;rotation=0;" vertex="1" parent="FpNZG0VmVVz_sjIysyUu-20">
          <mxGeometry y="120" width="160" as="geometry" />
        </mxCell>
        <mxCell id="FpNZG0VmVVz_sjIysyUu-49" value="" style="shape=tableRow;horizontal=0;startSize=0;swimlaneHead=0;swimlaneBody=0;fillColor=none;collapsible=0;dropTarget=0;points=[[0,0.5],[1,0.5]];portConstraint=eastwest;top=0;left=0;right=0;bottom=1;rotation=0;" vertex="1" visible="0" parent="FpNZG0VmVVz_sjIysyUu-48">
          <mxGeometry y="-1" width="160" height="30" as="geometry" />
        </mxCell>
        <mxCell id="FpNZG0VmVVz_sjIysyUu-50" value="PK" style="shape=partialRectangle;connectable=0;fillColor=none;top=0;left=0;bottom=0;right=0;fontStyle=1;overflow=hidden;rotation=0;" vertex="1" parent="FpNZG0VmVVz_sjIysyUu-49">
          <mxGeometry width="30" height="30" as="geometry">
            <mxRectangle width="30" height="30" as="alternateBounds" />
          </mxGeometry>
        </mxCell>
        <mxCell id="FpNZG0VmVVz_sjIysyUu-51" value="symptom_id" style="shape=partialRectangle;connectable=0;fillColor=none;top=0;left=0;bottom=0;right=0;align=left;spacingLeft=6;fontStyle=5;overflow=hidden;rotation=0;" vertex="1" parent="FpNZG0VmVVz_sjIysyUu-49">
          <mxGeometry x="29" width="130" height="30" as="geometry">
            <mxRectangle width="130" height="30" as="alternateBounds" />
          </mxGeometry>
        </mxCell>
        <mxCell id="FpNZG0VmVVz_sjIysyUu-52" value="" style="shape=tableRow;horizontal=0;startSize=0;swimlaneHead=0;swimlaneBody=0;fillColor=none;collapsible=0;dropTarget=0;points=[[0,0.5],[1,0.5]];portConstraint=eastwest;top=0;left=0;right=0;bottom=0;rotation=0;" vertex="1" visible="0" parent="FpNZG0VmVVz_sjIysyUu-48">
          <mxGeometry x="1" y="30" width="160" height="30" as="geometry" />
        </mxCell>
        <mxCell id="FpNZG0VmVVz_sjIysyUu-53" value="" style="shape=partialRectangle;connectable=0;fillColor=none;top=0;left=0;bottom=0;right=0;editable=1;overflow=hidden;rotation=0;" vertex="1" parent="FpNZG0VmVVz_sjIysyUu-52">
          <mxGeometry width="30" height="30" as="geometry">
            <mxRectangle width="30" height="30" as="alternateBounds" />
          </mxGeometry>
        </mxCell>
        <mxCell id="FpNZG0VmVVz_sjIysyUu-54" value="symptom_name" style="shape=partialRectangle;connectable=0;fillColor=none;top=0;left=0;bottom=0;right=0;align=left;spacingLeft=6;overflow=hidden;rotation=0;" vertex="1" parent="FpNZG0VmVVz_sjIysyUu-52">
          <mxGeometry x="29" width="130" height="30" as="geometry">
            <mxRectangle width="130" height="30" as="alternateBounds" />
          </mxGeometry>
        </mxCell>
        <mxCell id="FpNZG0VmVVz_sjIysyUu-32" value="displayed" style="shape=rhombus;perimeter=rhombusPerimeter;whiteSpace=wrap;html=1;align=center;shadow=0;sketch=0;rotation=30;" vertex="1" parent="1">
          <mxGeometry x="440" y="370" width="100" height="60" as="geometry" />
        </mxCell>
        <mxCell id="FpNZG0VmVVz_sjIysyUu-37" value="&lt;span style=&quot;border-bottom: 1px dotted&quot;&gt;symptom_id&lt;/span&gt;" style="ellipse;whiteSpace=wrap;html=1;align=center;fontSize=10;" vertex="1" parent="1">
          <mxGeometry x="570" y="320" width="100" height="40" as="geometry" />
        </mxCell>
        <mxCell id="FpNZG0VmVVz_sjIysyUu-38" value="&lt;span style=&quot;border-bottom: 1px dotted&quot;&gt;patient_id&lt;/span&gt;" style="ellipse;whiteSpace=wrap;html=1;align=center;fontSize=10;" vertex="1" parent="1">
          <mxGeometry x="420" y="230" width="100" height="40" as="geometry" />
        </mxCell>
        <mxCell id="FpNZG0VmVVz_sjIysyUu-39" value="" style="endArrow=none;html=1;rounded=0;fontSize=10;exitX=0.5;exitY=1;exitDx=0;exitDy=0;entryX=0;entryY=0;entryDx=0;entryDy=0;" edge="1" parent="1" source="FpNZG0VmVVz_sjIysyUu-38" target="FpNZG0VmVVz_sjIysyUu-32">
          <mxGeometry relative="1" as="geometry">
            <mxPoint x="960" y="710" as="sourcePoint" />
            <mxPoint x="1120" y="710" as="targetPoint" />
          </mxGeometry>
        </mxCell>
        <mxCell id="FpNZG0VmVVz_sjIysyUu-40" value="" style="endArrow=none;html=1;rounded=0;fontSize=10;exitX=0.5;exitY=1;exitDx=0;exitDy=0;entryX=1;entryY=0;entryDx=0;entryDy=0;" edge="1" parent="1" source="FpNZG0VmVVz_sjIysyUu-37" target="FpNZG0VmVVz_sjIysyUu-32">
          <mxGeometry relative="1" as="geometry">
            <mxPoint x="960" y="710" as="sourcePoint" />
            <mxPoint x="1120" y="710" as="targetPoint" />
          </mxGeometry>
        </mxCell>
        <mxCell id="FpNZG0VmVVz_sjIysyUu-86" value="Resource" style="swimlane;childLayout=stackLayout;horizontal=1;startSize=30;horizontalStack=0;rounded=1;fontSize=14;fontStyle=0;strokeWidth=2;resizeParent=0;resizeLast=1;shadow=0;dashed=0;align=center;" vertex="1" parent="1">
          <mxGeometry x="200" y="680" width="160" height="120" as="geometry" />
        </mxCell>
        <mxCell id="FpNZG0VmVVz_sjIysyUu-87" value="" style="shape=table;startSize=0;container=1;collapsible=1;childLayout=tableLayout;fixedRows=1;rowLines=0;fontStyle=0;align=center;resizeLast=1;strokeColor=none;fillColor=none;collapsible=0;" vertex="1" parent="FpNZG0VmVVz_sjIysyUu-86">
          <mxGeometry y="30" width="160" height="90" as="geometry" />
        </mxCell>
        <mxCell id="FpNZG0VmVVz_sjIysyUu-88" value="" style="shape=tableRow;horizontal=0;startSize=0;swimlaneHead=0;swimlaneBody=0;fillColor=none;collapsible=0;dropTarget=0;points=[[0,0.5],[1,0.5]];portConstraint=eastwest;top=0;left=0;right=0;bottom=1;" vertex="1" parent="FpNZG0VmVVz_sjIysyUu-87">
          <mxGeometry width="160" height="30" as="geometry" />
        </mxCell>
        <mxCell id="FpNZG0VmVVz_sjIysyUu-89" value="PK" style="shape=partialRectangle;connectable=0;fillColor=none;top=0;left=0;bottom=0;right=0;fontStyle=1;overflow=hidden;" vertex="1" parent="FpNZG0VmVVz_sjIysyUu-88">
          <mxGeometry width="30" height="30" as="geometry">
            <mxRectangle width="30" height="30" as="alternateBounds" />
          </mxGeometry>
        </mxCell>
        <mxCell id="FpNZG0VmVVz_sjIysyUu-90" value="resource_id" style="shape=partialRectangle;connectable=0;fillColor=none;top=0;left=0;bottom=0;right=0;align=left;spacingLeft=6;fontStyle=5;overflow=hidden;" vertex="1" parent="FpNZG0VmVVz_sjIysyUu-88">
          <mxGeometry x="30" width="130" height="30" as="geometry">
            <mxRectangle width="130" height="30" as="alternateBounds" />
          </mxGeometry>
        </mxCell>
        <mxCell id="FpNZG0VmVVz_sjIysyUu-91" value="" style="shape=tableRow;horizontal=0;startSize=0;swimlaneHead=0;swimlaneBody=0;fillColor=none;collapsible=0;dropTarget=0;points=[[0,0.5],[1,0.5]];portConstraint=eastwest;top=0;left=0;right=0;bottom=0;" vertex="1" parent="FpNZG0VmVVz_sjIysyUu-87">
          <mxGeometry y="30" width="160" height="30" as="geometry" />
        </mxCell>
        <mxCell id="FpNZG0VmVVz_sjIysyUu-92" value="" style="shape=partialRectangle;connectable=0;fillColor=none;top=0;left=0;bottom=0;right=0;editable=1;overflow=hidden;" vertex="1" parent="FpNZG0VmVVz_sjIysyUu-91">
          <mxGeometry width="30" height="30" as="geometry">
            <mxRectangle width="30" height="30" as="alternateBounds" />
          </mxGeometry>
        </mxCell>
        <mxCell id="FpNZG0VmVVz_sjIysyUu-93" value="resource_name" style="shape=partialRectangle;connectable=0;fillColor=none;top=0;left=0;bottom=0;right=0;align=left;spacingLeft=6;overflow=hidden;" vertex="1" parent="FpNZG0VmVVz_sjIysyUu-91">
          <mxGeometry x="30" width="130" height="30" as="geometry">
            <mxRectangle width="130" height="30" as="alternateBounds" />
          </mxGeometry>
        </mxCell>
        <mxCell id="FpNZG0VmVVz_sjIysyUu-116" value="" style="shape=tableRow;horizontal=0;startSize=0;swimlaneHead=0;swimlaneBody=0;fillColor=none;collapsible=0;dropTarget=0;points=[[0,0.5],[1,0.5]];portConstraint=eastwest;top=0;left=0;right=0;bottom=0;rounded=1;shadow=0;sketch=0;fontSize=10;" vertex="1" parent="FpNZG0VmVVz_sjIysyUu-87">
          <mxGeometry y="60" width="160" height="30" as="geometry" />
        </mxCell>
        <mxCell id="FpNZG0VmVVz_sjIysyUu-117" value="" style="shape=partialRectangle;connectable=0;fillColor=none;top=0;left=0;bottom=0;right=0;editable=1;overflow=hidden;rounded=1;shadow=0;sketch=0;fontSize=10;" vertex="1" parent="FpNZG0VmVVz_sjIysyUu-116">
          <mxGeometry width="30" height="30" as="geometry">
            <mxRectangle width="30" height="30" as="alternateBounds" />
          </mxGeometry>
        </mxCell>
        <mxCell id="FpNZG0VmVVz_sjIysyUu-118" value="resource_quantity" style="shape=partialRectangle;connectable=0;fillColor=none;top=0;left=0;bottom=0;right=0;align=left;spacingLeft=6;overflow=hidden;rounded=1;shadow=0;sketch=0;fontSize=12;" vertex="1" parent="FpNZG0VmVVz_sjIysyUu-116">
          <mxGeometry x="30" width="130" height="30" as="geometry">
            <mxRectangle width="130" height="30" as="alternateBounds" />
          </mxGeometry>
        </mxCell>
        <mxCell id="FpNZG0VmVVz_sjIysyUu-94" value="" style="shape=table;startSize=0;container=1;collapsible=1;childLayout=tableLayout;fixedRows=1;rowLines=0;fontStyle=0;align=center;resizeLast=1;strokeColor=none;fillColor=none;collapsible=0;" vertex="1" parent="FpNZG0VmVVz_sjIysyUu-86">
          <mxGeometry y="120" width="160" as="geometry" />
        </mxCell>
        <mxCell id="FpNZG0VmVVz_sjIysyUu-95" value="" style="shape=tableRow;horizontal=0;startSize=0;swimlaneHead=0;swimlaneBody=0;fillColor=none;collapsible=0;dropTarget=0;points=[[0,0.5],[1,0.5]];portConstraint=eastwest;top=0;left=0;right=0;bottom=1;" vertex="1" visible="0" parent="FpNZG0VmVVz_sjIysyUu-94">
          <mxGeometry width="160" height="30" as="geometry" />
        </mxCell>
        <mxCell id="FpNZG0VmVVz_sjIysyUu-96" value="PK" style="shape=partialRectangle;connectable=0;fillColor=none;top=0;left=0;bottom=0;right=0;fontStyle=1;overflow=hidden;" vertex="1" parent="FpNZG0VmVVz_sjIysyUu-95">
          <mxGeometry width="30" height="30" as="geometry">
            <mxRectangle width="30" height="30" as="alternateBounds" />
          </mxGeometry>
        </mxCell>
        <mxCell id="FpNZG0VmVVz_sjIysyUu-97" value="symptom_id" style="shape=partialRectangle;connectable=0;fillColor=none;top=0;left=0;bottom=0;right=0;align=left;spacingLeft=6;fontStyle=5;overflow=hidden;" vertex="1" parent="FpNZG0VmVVz_sjIysyUu-95">
          <mxGeometry x="30" width="130" height="30" as="geometry">
            <mxRectangle width="130" height="30" as="alternateBounds" />
          </mxGeometry>
        </mxCell>
        <mxCell id="FpNZG0VmVVz_sjIysyUu-98" value="" style="shape=tableRow;horizontal=0;startSize=0;swimlaneHead=0;swimlaneBody=0;fillColor=none;collapsible=0;dropTarget=0;points=[[0,0.5],[1,0.5]];portConstraint=eastwest;top=0;left=0;right=0;bottom=0;" vertex="1" visible="0" parent="FpNZG0VmVVz_sjIysyUu-94">
          <mxGeometry y="30" width="160" height="30" as="geometry" />
        </mxCell>
        <mxCell id="FpNZG0VmVVz_sjIysyUu-99" value="" style="shape=partialRectangle;connectable=0;fillColor=none;top=0;left=0;bottom=0;right=0;editable=1;overflow=hidden;" vertex="1" parent="FpNZG0VmVVz_sjIysyUu-98">
          <mxGeometry width="30" height="30" as="geometry">
            <mxRectangle width="30" height="30" as="alternateBounds" />
          </mxGeometry>
        </mxCell>
        <mxCell id="FpNZG0VmVVz_sjIysyUu-100" value="symptom_name" style="shape=partialRectangle;connectable=0;fillColor=none;top=0;left=0;bottom=0;right=0;align=left;spacingLeft=6;overflow=hidden;" vertex="1" parent="FpNZG0VmVVz_sjIysyUu-98">
          <mxGeometry x="30" width="130" height="30" as="geometry">
            <mxRectangle width="130" height="30" as="alternateBounds" />
          </mxGeometry>
        </mxCell>
        <mxCell id="FpNZG0VmVVz_sjIysyUu-101" value="" style="shape=table;startSize=0;container=1;collapsible=1;childLayout=tableLayout;fixedRows=1;rowLines=0;fontStyle=0;align=center;resizeLast=1;strokeColor=none;fillColor=none;collapsible=0;" vertex="1" parent="FpNZG0VmVVz_sjIysyUu-86">
          <mxGeometry y="120" width="160" as="geometry" />
        </mxCell>
        <mxCell id="FpNZG0VmVVz_sjIysyUu-102" value="" style="shape=tableRow;horizontal=0;startSize=0;swimlaneHead=0;swimlaneBody=0;fillColor=none;collapsible=0;dropTarget=0;points=[[0,0.5],[1,0.5]];portConstraint=eastwest;top=0;left=0;right=0;bottom=1;" vertex="1" visible="0" parent="FpNZG0VmVVz_sjIysyUu-101">
          <mxGeometry width="160" height="30" as="geometry" />
        </mxCell>
        <mxCell id="FpNZG0VmVVz_sjIysyUu-103" value="PK" style="shape=partialRectangle;connectable=0;fillColor=none;top=0;left=0;bottom=0;right=0;fontStyle=1;overflow=hidden;" vertex="1" parent="FpNZG0VmVVz_sjIysyUu-102">
          <mxGeometry width="30" height="30" as="geometry">
            <mxRectangle width="30" height="30" as="alternateBounds" />
          </mxGeometry>
        </mxCell>
        <mxCell id="FpNZG0VmVVz_sjIysyUu-104" value="symptom_id" style="shape=partialRectangle;connectable=0;fillColor=none;top=0;left=0;bottom=0;right=0;align=left;spacingLeft=6;fontStyle=5;overflow=hidden;" vertex="1" parent="FpNZG0VmVVz_sjIysyUu-102">
          <mxGeometry x="30" width="130" height="30" as="geometry">
            <mxRectangle width="130" height="30" as="alternateBounds" />
          </mxGeometry>
        </mxCell>
        <mxCell id="FpNZG0VmVVz_sjIysyUu-105" value="" style="shape=tableRow;horizontal=0;startSize=0;swimlaneHead=0;swimlaneBody=0;fillColor=none;collapsible=0;dropTarget=0;points=[[0,0.5],[1,0.5]];portConstraint=eastwest;top=0;left=0;right=0;bottom=0;" vertex="1" visible="0" parent="FpNZG0VmVVz_sjIysyUu-101">
          <mxGeometry y="30" width="160" height="30" as="geometry" />
        </mxCell>
        <mxCell id="FpNZG0VmVVz_sjIysyUu-106" value="" style="shape=partialRectangle;connectable=0;fillColor=none;top=0;left=0;bottom=0;right=0;editable=1;overflow=hidden;" vertex="1" parent="FpNZG0VmVVz_sjIysyUu-105">
          <mxGeometry width="30" height="30" as="geometry">
            <mxRectangle width="30" height="30" as="alternateBounds" />
          </mxGeometry>
        </mxCell>
        <mxCell id="FpNZG0VmVVz_sjIysyUu-107" value="symptom_name" style="shape=partialRectangle;connectable=0;fillColor=none;top=0;left=0;bottom=0;right=0;align=left;spacingLeft=6;overflow=hidden;" vertex="1" parent="FpNZG0VmVVz_sjIysyUu-105">
          <mxGeometry x="30" width="130" height="30" as="geometry">
            <mxRectangle width="130" height="30" as="alternateBounds" />
          </mxGeometry>
        </mxCell>
        <mxCell id="FpNZG0VmVVz_sjIysyUu-124" value="&lt;font style=&quot;font-size: 11px;&quot;&gt;Resource_use&lt;/font&gt;" style="shape=rhombus;perimeter=rhombusPerimeter;whiteSpace=wrap;html=1;align=center;shadow=0;sketch=0;rotation=-25;" vertex="1" parent="1">
          <mxGeometry x="370" y="590" width="100" height="60" as="geometry" />
        </mxCell>
        <mxCell id="FpNZG0VmVVz_sjIysyUu-125" value="&lt;span style=&quot;border-bottom: 1px dotted&quot;&gt;resource_id&lt;/span&gt;" style="ellipse;whiteSpace=wrap;html=1;align=center;fontSize=10;" vertex="1" parent="1">
          <mxGeometry x="350" y="500" width="100" height="40" as="geometry" />
        </mxCell>
        <mxCell id="FpNZG0VmVVz_sjIysyUu-126" value="&lt;span style=&quot;border-bottom: 1px dotted&quot;&gt;patient_id&lt;/span&gt;" style="ellipse;whiteSpace=wrap;html=1;align=center;fontSize=10;rotation=0;" vertex="1" parent="1">
          <mxGeometry x="240" y="535" width="100" height="40" as="geometry" />
        </mxCell>
        <mxCell id="FpNZG0VmVVz_sjIysyUu-127" value="" style="endArrow=none;html=1;rounded=0;fontSize=10;exitX=0.5;exitY=1;exitDx=0;exitDy=0;entryX=0;entryY=0;entryDx=0;entryDy=0;" edge="1" source="FpNZG0VmVVz_sjIysyUu-126" target="FpNZG0VmVVz_sjIysyUu-124" parent="1">
          <mxGeometry relative="1" as="geometry">
            <mxPoint x="409" y="807.5" as="sourcePoint" />
            <mxPoint x="569" y="807.5" as="targetPoint" />
          </mxGeometry>
        </mxCell>
        <mxCell id="FpNZG0VmVVz_sjIysyUu-128" value="" style="endArrow=none;html=1;rounded=0;fontSize=10;exitX=0.5;exitY=1;exitDx=0;exitDy=0;entryX=1;entryY=0;entryDx=0;entryDy=0;" edge="1" source="FpNZG0VmVVz_sjIysyUu-125" target="FpNZG0VmVVz_sjIysyUu-124" parent="1">
          <mxGeometry relative="1" as="geometry">
            <mxPoint x="409" y="807.5" as="sourcePoint" />
            <mxPoint x="569" y="807.5" as="targetPoint" />
          </mxGeometry>
        </mxCell>
        <mxCell id="FpNZG0VmVVz_sjIysyUu-132" value="Treatment" style="swimlane;childLayout=stackLayout;horizontal=1;startSize=30;horizontalStack=0;rounded=1;fontSize=14;fontStyle=0;strokeWidth=2;resizeParent=0;resizeLast=1;shadow=0;dashed=0;align=center;sketch=0;" vertex="1" parent="1">
          <mxGeometry x="360" y="830" width="160" height="120" as="geometry" />
        </mxCell>
        <mxCell id="FpNZG0VmVVz_sjIysyUu-134" value="" style="shape=table;startSize=0;container=1;collapsible=1;childLayout=tableLayout;fixedRows=1;rowLines=0;fontStyle=0;align=center;resizeLast=1;strokeColor=none;fillColor=none;collapsible=0;rounded=1;shadow=0;sketch=0;fontSize=12;" vertex="1" parent="FpNZG0VmVVz_sjIysyUu-132">
          <mxGeometry y="30" width="160" height="90" as="geometry" />
        </mxCell>
        <mxCell id="FpNZG0VmVVz_sjIysyUu-135" value="" style="shape=tableRow;horizontal=0;startSize=0;swimlaneHead=0;swimlaneBody=0;fillColor=none;collapsible=0;dropTarget=0;points=[[0,0.5],[1,0.5]];portConstraint=eastwest;top=0;left=0;right=0;bottom=1;rounded=1;shadow=0;sketch=0;fontSize=12;" vertex="1" parent="FpNZG0VmVVz_sjIysyUu-134">
          <mxGeometry width="160" height="30" as="geometry" />
        </mxCell>
        <mxCell id="FpNZG0VmVVz_sjIysyUu-136" value="PK" style="shape=partialRectangle;connectable=0;fillColor=none;top=0;left=0;bottom=0;right=0;fontStyle=1;overflow=hidden;rounded=1;shadow=0;sketch=0;fontSize=12;" vertex="1" parent="FpNZG0VmVVz_sjIysyUu-135">
          <mxGeometry width="30" height="30" as="geometry">
            <mxRectangle width="30" height="30" as="alternateBounds" />
          </mxGeometry>
        </mxCell>
        <mxCell id="FpNZG0VmVVz_sjIysyUu-137" value="treatment_id" style="shape=partialRectangle;connectable=0;fillColor=none;top=0;left=0;bottom=0;right=0;align=left;spacingLeft=6;fontStyle=5;overflow=hidden;rounded=1;shadow=0;sketch=0;fontSize=12;" vertex="1" parent="FpNZG0VmVVz_sjIysyUu-135">
          <mxGeometry x="30" width="130" height="30" as="geometry">
            <mxRectangle width="130" height="30" as="alternateBounds" />
          </mxGeometry>
        </mxCell>
        <mxCell id="FpNZG0VmVVz_sjIysyUu-139" value="" style="shape=tableRow;horizontal=0;startSize=0;swimlaneHead=0;swimlaneBody=0;fillColor=none;collapsible=0;dropTarget=0;points=[[0,0.5],[1,0.5]];portConstraint=eastwest;top=0;left=0;right=0;bottom=0;rounded=1;shadow=0;sketch=0;fontSize=12;" vertex="1" parent="FpNZG0VmVVz_sjIysyUu-134">
          <mxGeometry y="30" width="160" height="30" as="geometry" />
        </mxCell>
        <mxCell id="FpNZG0VmVVz_sjIysyUu-140" value="" style="shape=partialRectangle;connectable=0;fillColor=none;top=0;left=0;bottom=0;right=0;editable=1;overflow=hidden;rounded=1;shadow=0;sketch=0;fontSize=12;" vertex="1" parent="FpNZG0VmVVz_sjIysyUu-139">
          <mxGeometry width="30" height="30" as="geometry">
            <mxRectangle width="30" height="30" as="alternateBounds" />
          </mxGeometry>
        </mxCell>
        <mxCell id="FpNZG0VmVVz_sjIysyUu-141" value="treatment_name" style="shape=partialRectangle;connectable=0;fillColor=none;top=0;left=0;bottom=0;right=0;align=left;spacingLeft=6;overflow=hidden;rounded=1;shadow=0;sketch=0;fontSize=12;" vertex="1" parent="FpNZG0VmVVz_sjIysyUu-139">
          <mxGeometry x="30" width="130" height="30" as="geometry">
            <mxRectangle width="130" height="30" as="alternateBounds" />
          </mxGeometry>
        </mxCell>
        <mxCell id="FpNZG0VmVVz_sjIysyUu-146" value="" style="endArrow=ERmany;html=1;rounded=0;fontSize=11;exitX=1;exitY=0.5;exitDx=0;exitDy=0;entryX=0;entryY=0.5;entryDx=0;entryDy=0;endFill=0;" edge="1" parent="1" source="FpNZG0VmVVz_sjIysyUu-124" target="FpNZG0VmVVz_sjIysyUu-1">
          <mxGeometry relative="1" as="geometry">
            <mxPoint x="960" y="710" as="sourcePoint" />
            <mxPoint x="690" y="670" as="targetPoint" />
          </mxGeometry>
        </mxCell>
        <mxCell id="FpNZG0VmVVz_sjIysyUu-147" value="" style="endArrow=ERmany;html=1;rounded=0;fontSize=11;exitX=0;exitY=0.5;exitDx=0;exitDy=0;entryX=0.5;entryY=0;entryDx=0;entryDy=0;endFill=0;" edge="1" parent="1" source="FpNZG0VmVVz_sjIysyUu-124" target="FpNZG0VmVVz_sjIysyUu-86">
          <mxGeometry relative="1" as="geometry">
            <mxPoint x="370" y="607.5" as="sourcePoint" />
            <mxPoint x="370" y="537.5" as="targetPoint" />
          </mxGeometry>
        </mxCell>
        <mxCell id="FpNZG0VmVVz_sjIysyUu-148" value="&lt;font style=&quot;font-size: 12px;&quot;&gt;Receiving&lt;/font&gt;" style="shape=rhombus;perimeter=rhombusPerimeter;whiteSpace=wrap;html=1;align=center;rounded=0;shadow=0;sketch=0;fontSize=11;rotation=-45;" vertex="1" parent="1">
          <mxGeometry x="480" y="685" width="120" height="60" as="geometry" />
        </mxCell>
        <mxCell id="FpNZG0VmVVz_sjIysyUu-151" value="" style="endArrow=ERmany;html=1;rounded=0;fontSize=12;exitX=1;exitY=0.5;exitDx=0;exitDy=0;entryX=0.25;entryY=1;entryDx=0;entryDy=0;endFill=0;" edge="1" parent="1" source="FpNZG0VmVVz_sjIysyUu-148" target="FpNZG0VmVVz_sjIysyUu-4">
          <mxGeometry relative="1" as="geometry">
            <mxPoint x="940" y="710" as="sourcePoint" />
            <mxPoint x="1120" y="710" as="targetPoint" />
          </mxGeometry>
        </mxCell>
        <mxCell id="FpNZG0VmVVz_sjIysyUu-152" value="" style="endArrow=ERmany;html=1;rounded=0;fontSize=12;entryX=0.5;entryY=0;entryDx=0;entryDy=0;endFill=0;exitX=0;exitY=0.5;exitDx=0;exitDy=0;" edge="1" parent="1" source="FpNZG0VmVVz_sjIysyUu-148" target="FpNZG0VmVVz_sjIysyUu-132">
          <mxGeometry relative="1" as="geometry">
            <mxPoint x="570" y="800" as="sourcePoint" />
            <mxPoint x="431" y="644.02" as="targetPoint" />
          </mxGeometry>
        </mxCell>
        <mxCell id="FpNZG0VmVVz_sjIysyUu-153" value="Test_Center" style="swimlane;childLayout=stackLayout;horizontal=1;startSize=30;horizontalStack=0;rounded=1;fontSize=14;fontStyle=0;strokeWidth=2;resizeParent=0;resizeLast=1;shadow=0;dashed=0;align=center;sketch=0;" vertex="1" parent="1">
          <mxGeometry x="1180" y="720" width="160" height="170" as="geometry" />
        </mxCell>
        <mxCell id="FpNZG0VmVVz_sjIysyUu-161" value="" style="shape=table;startSize=0;container=1;collapsible=1;childLayout=tableLayout;fixedRows=1;rowLines=0;fontStyle=0;align=center;resizeLast=1;strokeColor=none;fillColor=none;collapsible=0;rounded=0;shadow=0;sketch=0;fontSize=12;" vertex="1" parent="FpNZG0VmVVz_sjIysyUu-153">
          <mxGeometry y="30" width="160" height="140" as="geometry" />
        </mxCell>
        <mxCell id="FpNZG0VmVVz_sjIysyUu-162" value="" style="shape=tableRow;horizontal=0;startSize=0;swimlaneHead=0;swimlaneBody=0;fillColor=none;collapsible=0;dropTarget=0;points=[[0,0.5],[1,0.5]];portConstraint=eastwest;top=0;left=0;right=0;bottom=1;rounded=0;shadow=0;sketch=0;fontSize=12;" vertex="1" parent="FpNZG0VmVVz_sjIysyUu-161">
          <mxGeometry width="160" height="30" as="geometry" />
        </mxCell>
        <mxCell id="FpNZG0VmVVz_sjIysyUu-163" value="PK" style="shape=partialRectangle;connectable=0;fillColor=none;top=0;left=0;bottom=0;right=0;fontStyle=1;overflow=hidden;rounded=0;shadow=0;sketch=0;fontSize=12;" vertex="1" parent="FpNZG0VmVVz_sjIysyUu-162">
          <mxGeometry width="30" height="30" as="geometry">
            <mxRectangle width="30" height="30" as="alternateBounds" />
          </mxGeometry>
        </mxCell>
        <mxCell id="FpNZG0VmVVz_sjIysyUu-164" value="center_id" style="shape=partialRectangle;connectable=0;fillColor=none;top=0;left=0;bottom=0;right=0;align=left;spacingLeft=6;fontStyle=5;overflow=hidden;rounded=0;shadow=0;sketch=0;fontSize=12;" vertex="1" parent="FpNZG0VmVVz_sjIysyUu-162">
          <mxGeometry x="30" width="130" height="30" as="geometry">
            <mxRectangle width="130" height="30" as="alternateBounds" />
          </mxGeometry>
        </mxCell>
        <mxCell id="FpNZG0VmVVz_sjIysyUu-169" value="" style="shape=tableRow;horizontal=0;startSize=0;swimlaneHead=0;swimlaneBody=0;fillColor=none;collapsible=0;dropTarget=0;points=[[0,0.5],[1,0.5]];portConstraint=eastwest;top=0;left=0;right=0;bottom=0;rounded=0;shadow=0;sketch=0;fontSize=12;" vertex="1" parent="FpNZG0VmVVz_sjIysyUu-161">
          <mxGeometry y="30" width="160" height="30" as="geometry" />
        </mxCell>
        <mxCell id="FpNZG0VmVVz_sjIysyUu-170" value="" style="shape=partialRectangle;connectable=0;fillColor=none;top=0;left=0;bottom=0;right=0;editable=1;overflow=hidden;rounded=0;shadow=0;sketch=0;fontSize=12;" vertex="1" parent="FpNZG0VmVVz_sjIysyUu-169">
          <mxGeometry width="30" height="30" as="geometry">
            <mxRectangle width="30" height="30" as="alternateBounds" />
          </mxGeometry>
        </mxCell>
        <mxCell id="FpNZG0VmVVz_sjIysyUu-171" value="state" style="shape=partialRectangle;connectable=0;fillColor=none;top=0;left=0;bottom=0;right=0;align=left;spacingLeft=6;overflow=hidden;rounded=0;shadow=0;sketch=0;fontSize=12;" vertex="1" parent="FpNZG0VmVVz_sjIysyUu-169">
          <mxGeometry x="30" width="130" height="30" as="geometry">
            <mxRectangle width="130" height="30" as="alternateBounds" />
          </mxGeometry>
        </mxCell>
        <mxCell id="FpNZG0VmVVz_sjIysyUu-172" value="" style="shape=tableRow;horizontal=0;startSize=0;swimlaneHead=0;swimlaneBody=0;fillColor=none;collapsible=0;dropTarget=0;points=[[0,0.5],[1,0.5]];portConstraint=eastwest;top=0;left=0;right=0;bottom=0;rounded=0;shadow=0;sketch=0;fontSize=12;" vertex="1" parent="FpNZG0VmVVz_sjIysyUu-161">
          <mxGeometry y="60" width="160" height="30" as="geometry" />
        </mxCell>
        <mxCell id="FpNZG0VmVVz_sjIysyUu-173" value="" style="shape=partialRectangle;connectable=0;fillColor=none;top=0;left=0;bottom=0;right=0;editable=1;overflow=hidden;rounded=0;shadow=0;sketch=0;fontSize=12;" vertex="1" parent="FpNZG0VmVVz_sjIysyUu-172">
          <mxGeometry width="30" height="30" as="geometry">
            <mxRectangle width="30" height="30" as="alternateBounds" />
          </mxGeometry>
        </mxCell>
        <mxCell id="FpNZG0VmVVz_sjIysyUu-174" value="district" style="shape=partialRectangle;connectable=0;fillColor=none;top=0;left=0;bottom=0;right=0;align=left;spacingLeft=6;overflow=hidden;rounded=0;shadow=0;sketch=0;fontSize=12;" vertex="1" parent="FpNZG0VmVVz_sjIysyUu-172">
          <mxGeometry x="30" width="130" height="30" as="geometry">
            <mxRectangle width="130" height="30" as="alternateBounds" />
          </mxGeometry>
        </mxCell>
        <mxCell id="FpNZG0VmVVz_sjIysyUu-175" value="" style="shape=tableRow;horizontal=0;startSize=0;swimlaneHead=0;swimlaneBody=0;fillColor=none;collapsible=0;dropTarget=0;points=[[0,0.5],[1,0.5]];portConstraint=eastwest;top=0;left=0;right=0;bottom=0;rounded=0;shadow=0;sketch=0;fontSize=12;" vertex="1" parent="FpNZG0VmVVz_sjIysyUu-161">
          <mxGeometry y="90" width="160" height="30" as="geometry" />
        </mxCell>
        <mxCell id="FpNZG0VmVVz_sjIysyUu-176" value="" style="shape=partialRectangle;connectable=0;fillColor=none;top=0;left=0;bottom=0;right=0;editable=1;overflow=hidden;rounded=0;shadow=0;sketch=0;fontSize=12;" vertex="1" parent="FpNZG0VmVVz_sjIysyUu-175">
          <mxGeometry width="30" height="30" as="geometry">
            <mxRectangle width="30" height="30" as="alternateBounds" />
          </mxGeometry>
        </mxCell>
        <mxCell id="FpNZG0VmVVz_sjIysyUu-177" value="name" style="shape=partialRectangle;connectable=0;fillColor=none;top=0;left=0;bottom=0;right=0;align=left;spacingLeft=6;overflow=hidden;rounded=0;shadow=0;sketch=0;fontSize=12;" vertex="1" parent="FpNZG0VmVVz_sjIysyUu-175">
          <mxGeometry x="30" width="130" height="30" as="geometry">
            <mxRectangle width="130" height="30" as="alternateBounds" />
          </mxGeometry>
        </mxCell>
        <mxCell id="FpNZG0VmVVz_sjIysyUu-155" value="Test" style="swimlane;childLayout=stackLayout;horizontal=1;startSize=30;horizontalStack=0;rounded=1;fontSize=14;fontStyle=0;strokeWidth=2;resizeParent=0;resizeLast=1;shadow=0;dashed=0;align=center;sketch=0;" vertex="1" parent="1">
          <mxGeometry x="610" y="860" width="160" height="155" as="geometry" />
        </mxCell>
        <mxCell id="FpNZG0VmVVz_sjIysyUu-157" value="" style="shape=table;startSize=0;container=1;collapsible=1;childLayout=tableLayout;fixedRows=1;rowLines=0;fontStyle=0;align=center;resizeLast=1;strokeColor=none;fillColor=none;collapsible=0;rounded=0;shadow=0;sketch=0;fontSize=12;" vertex="1" parent="FpNZG0VmVVz_sjIysyUu-155">
          <mxGeometry y="30" width="160" height="125" as="geometry" />
        </mxCell>
        <mxCell id="FpNZG0VmVVz_sjIysyUu-158" value="" style="shape=tableRow;horizontal=0;startSize=0;swimlaneHead=0;swimlaneBody=0;fillColor=none;collapsible=0;dropTarget=0;points=[[0,0.5],[1,0.5]];portConstraint=eastwest;top=0;left=0;right=0;bottom=1;rounded=0;shadow=0;sketch=0;fontSize=12;" vertex="1" parent="FpNZG0VmVVz_sjIysyUu-157">
          <mxGeometry width="160" height="30" as="geometry" />
        </mxCell>
        <mxCell id="FpNZG0VmVVz_sjIysyUu-159" value="PK" style="shape=partialRectangle;connectable=0;fillColor=none;top=0;left=0;bottom=0;right=0;fontStyle=1;overflow=hidden;rounded=0;shadow=0;sketch=0;fontSize=12;" vertex="1" parent="FpNZG0VmVVz_sjIysyUu-158">
          <mxGeometry width="30" height="30" as="geometry">
            <mxRectangle width="30" height="30" as="alternateBounds" />
          </mxGeometry>
        </mxCell>
        <mxCell id="FpNZG0VmVVz_sjIysyUu-160" value="test_id" style="shape=partialRectangle;connectable=0;fillColor=none;top=0;left=0;bottom=0;right=0;align=left;spacingLeft=6;fontStyle=5;overflow=hidden;rounded=0;shadow=0;sketch=0;fontSize=12;" vertex="1" parent="FpNZG0VmVVz_sjIysyUu-158">
          <mxGeometry x="30" width="130" height="30" as="geometry">
            <mxRectangle width="130" height="30" as="alternateBounds" />
          </mxGeometry>
        </mxCell>
        <mxCell id="FpNZG0VmVVz_sjIysyUu-182" value="" style="shape=tableRow;horizontal=0;startSize=0;swimlaneHead=0;swimlaneBody=0;fillColor=none;collapsible=0;dropTarget=0;points=[[0,0.5],[1,0.5]];portConstraint=eastwest;top=0;left=0;right=0;bottom=0;rounded=0;shadow=0;sketch=0;fontSize=12;" vertex="1" parent="FpNZG0VmVVz_sjIysyUu-157">
          <mxGeometry y="30" width="160" height="30" as="geometry" />
        </mxCell>
        <mxCell id="FpNZG0VmVVz_sjIysyUu-183" value="" style="shape=partialRectangle;connectable=0;fillColor=none;top=0;left=0;bottom=0;right=0;editable=1;overflow=hidden;rounded=0;shadow=0;sketch=0;fontSize=12;" vertex="1" parent="FpNZG0VmVVz_sjIysyUu-182">
          <mxGeometry width="30" height="30" as="geometry">
            <mxRectangle width="30" height="30" as="alternateBounds" />
          </mxGeometry>
        </mxCell>
        <mxCell id="FpNZG0VmVVz_sjIysyUu-184" value="test_name" style="shape=partialRectangle;connectable=0;fillColor=none;top=0;left=0;bottom=0;right=0;align=left;spacingLeft=6;overflow=hidden;rounded=0;shadow=0;sketch=0;fontSize=12;" vertex="1" parent="FpNZG0VmVVz_sjIysyUu-182">
          <mxGeometry x="30" width="130" height="30" as="geometry">
            <mxRectangle width="130" height="30" as="alternateBounds" />
          </mxGeometry>
        </mxCell>
        <mxCell id="FpNZG0VmVVz_sjIysyUu-194" value="" style="shape=tableRow;horizontal=0;startSize=0;swimlaneHead=0;swimlaneBody=0;fillColor=none;collapsible=0;dropTarget=0;points=[[0,0.5],[1,0.5]];portConstraint=eastwest;top=0;left=0;right=0;bottom=0;rounded=0;shadow=0;sketch=0;fontSize=12;" vertex="1" parent="FpNZG0VmVVz_sjIysyUu-157">
          <mxGeometry y="60" width="160" height="30" as="geometry" />
        </mxCell>
        <mxCell id="FpNZG0VmVVz_sjIysyUu-195" value="" style="shape=partialRectangle;connectable=0;fillColor=none;top=0;left=0;bottom=0;right=0;editable=1;overflow=hidden;rounded=0;shadow=0;sketch=0;fontSize=12;" vertex="1" parent="FpNZG0VmVVz_sjIysyUu-194">
          <mxGeometry width="30" height="30" as="geometry">
            <mxRectangle width="30" height="30" as="alternateBounds" />
          </mxGeometry>
        </mxCell>
        <mxCell id="FpNZG0VmVVz_sjIysyUu-196" value="test_data" style="shape=partialRectangle;connectable=0;fillColor=none;top=0;left=0;bottom=0;right=0;align=left;spacingLeft=6;overflow=hidden;rounded=0;shadow=0;sketch=0;fontSize=12;" vertex="1" parent="FpNZG0VmVVz_sjIysyUu-194">
          <mxGeometry x="30" width="130" height="30" as="geometry">
            <mxRectangle width="130" height="30" as="alternateBounds" />
          </mxGeometry>
        </mxCell>
        <mxCell id="FpNZG0VmVVz_sjIysyUu-197" value="" style="shape=tableRow;horizontal=0;startSize=0;swimlaneHead=0;swimlaneBody=0;fillColor=none;collapsible=0;dropTarget=0;points=[[0,0.5],[1,0.5]];portConstraint=eastwest;top=0;left=0;right=0;bottom=0;rounded=0;shadow=0;sketch=0;fontSize=12;" vertex="1" parent="FpNZG0VmVVz_sjIysyUu-157">
          <mxGeometry y="90" width="160" height="30" as="geometry" />
        </mxCell>
        <mxCell id="FpNZG0VmVVz_sjIysyUu-198" value="" style="shape=partialRectangle;connectable=0;fillColor=none;top=0;left=0;bottom=0;right=0;editable=1;overflow=hidden;rounded=0;shadow=0;sketch=0;fontSize=12;" vertex="1" parent="FpNZG0VmVVz_sjIysyUu-197">
          <mxGeometry width="30" height="30" as="geometry">
            <mxRectangle width="30" height="30" as="alternateBounds" />
          </mxGeometry>
        </mxCell>
        <mxCell id="FpNZG0VmVVz_sjIysyUu-199" value="test_result" style="shape=partialRectangle;connectable=0;fillColor=none;top=0;left=0;bottom=0;right=0;align=left;spacingLeft=6;overflow=hidden;rounded=0;shadow=0;sketch=0;fontSize=12;" vertex="1" parent="FpNZG0VmVVz_sjIysyUu-197">
          <mxGeometry x="30" width="130" height="30" as="geometry">
            <mxRectangle width="130" height="30" as="alternateBounds" />
          </mxGeometry>
        </mxCell>
        <mxCell id="FpNZG0VmVVz_sjIysyUu-187" value="" style="endArrow=none;html=1;rounded=0;fontSize=12;exitX=1;exitY=0.75;exitDx=0;exitDy=0;entryX=0;entryY=0;entryDx=0;entryDy=0;" edge="1" parent="1" source="FpNZG0VmVVz_sjIysyUu-4" target="FpNZG0VmVVz_sjIysyUu-237">
          <mxGeometry relative="1" as="geometry">
            <mxPoint x="840" y="680" as="sourcePoint" />
            <mxPoint x="802.2354286469244" y="721.0222252113281" as="targetPoint" />
          </mxGeometry>
        </mxCell>
        <mxCell id="FpNZG0VmVVz_sjIysyUu-189" value="" style="endArrow=none;html=1;rounded=0;fontSize=12;exitX=0;exitY=1;exitDx=0;exitDy=0;entryX=0.5;entryY=0;entryDx=0;entryDy=0;" edge="1" parent="1" source="FpNZG0VmVVz_sjIysyUu-237" target="FpNZG0VmVVz_sjIysyUu-155">
          <mxGeometry relative="1" as="geometry">
            <mxPoint x="752.0444504226557" y="765.5291427061511" as="sourcePoint" />
            <mxPoint x="1140" y="770" as="targetPoint" />
          </mxGeometry>
        </mxCell>
        <mxCell id="FpNZG0VmVVz_sjIysyUu-204" value="" style="endArrow=none;html=1;rounded=0;fontSize=12;exitX=1;exitY=0.5;exitDx=0;exitDy=0;entryX=0;entryY=0;entryDx=0;entryDy=0;" edge="1" parent="1" source="FpNZG0VmVVz_sjIysyUu-32" target="FpNZG0VmVVz_sjIysyUu-1">
          <mxGeometry relative="1" as="geometry">
            <mxPoint x="900" y="740" as="sourcePoint" />
            <mxPoint x="780" y="420" as="targetPoint" />
          </mxGeometry>
        </mxCell>
        <mxCell id="FpNZG0VmVVz_sjIysyUu-205" value="" style="endArrow=none;html=1;rounded=0;fontSize=12;exitX=0;exitY=0.5;exitDx=0;exitDy=0;entryX=1;entryY=0.5;entryDx=0;entryDy=0;" edge="1" parent="1" source="FpNZG0VmVVz_sjIysyUu-32" target="FpNZG0VmVVz_sjIysyUu-29">
          <mxGeometry relative="1" as="geometry">
            <mxPoint x="825" y="340" as="sourcePoint" />
            <mxPoint x="790" y="430.0000000000002" as="targetPoint" />
          </mxGeometry>
        </mxCell>
        <mxCell id="FpNZG0VmVVz_sjIysyUu-218" value="&lt;span style=&quot;border-bottom: 1px dotted&quot;&gt;patient_id&lt;/span&gt;" style="ellipse;whiteSpace=wrap;html=1;align=center;fontSize=10;rotation=0;" vertex="1" parent="1">
          <mxGeometry x="580" y="735" width="100" height="40" as="geometry" />
        </mxCell>
        <mxCell id="FpNZG0VmVVz_sjIysyUu-219" value="&lt;span style=&quot;border-bottom: 1px dotted&quot;&gt;treatment_id&lt;/span&gt;" style="ellipse;whiteSpace=wrap;html=1;align=center;fontSize=10;rotation=0;" vertex="1" parent="1">
          <mxGeometry x="530" y="790" width="100" height="40" as="geometry" />
        </mxCell>
        <mxCell id="FpNZG0VmVVz_sjIysyUu-220" value="" style="endArrow=none;html=1;rounded=0;fontSize=12;exitX=0;exitY=1;exitDx=0;exitDy=0;entryX=0.5;entryY=0;entryDx=0;entryDy=0;" edge="1" parent="1" source="FpNZG0VmVVz_sjIysyUu-148" target="FpNZG0VmVVz_sjIysyUu-219">
          <mxGeometry relative="1" as="geometry">
            <mxPoint x="880" y="700" as="sourcePoint" />
            <mxPoint x="1040" y="700" as="targetPoint" />
          </mxGeometry>
        </mxCell>
        <mxCell id="FpNZG0VmVVz_sjIysyUu-221" value="" style="endArrow=none;html=1;rounded=0;fontSize=12;exitX=0.714;exitY=0.806;exitDx=0;exitDy=0;exitPerimeter=0;entryX=0.5;entryY=0;entryDx=0;entryDy=0;" edge="1" parent="1" source="FpNZG0VmVVz_sjIysyUu-148" target="FpNZG0VmVVz_sjIysyUu-218">
          <mxGeometry relative="1" as="geometry">
            <mxPoint x="880" y="700" as="sourcePoint" />
            <mxPoint x="1040" y="700" as="targetPoint" />
          </mxGeometry>
        </mxCell>
        <mxCell id="FpNZG0VmVVz_sjIysyUu-225" value="&lt;span style=&quot;border-bottom: 1px dotted&quot;&gt;patient_id&lt;/span&gt;" style="ellipse;whiteSpace=wrap;html=1;align=center;fontSize=10;" vertex="1" parent="1">
          <mxGeometry x="810" y="910" width="100" height="40" as="geometry" />
        </mxCell>
        <mxCell id="FpNZG0VmVVz_sjIysyUu-226" value="" style="endArrow=none;html=1;rounded=0;fontSize=12;exitX=0.5;exitY=0;exitDx=0;exitDy=0;entryX=0.75;entryY=1;entryDx=0;entryDy=0;" edge="1" parent="1" source="FpNZG0VmVVz_sjIysyUu-225" target="FpNZG0VmVVz_sjIysyUu-237">
          <mxGeometry relative="1" as="geometry">
            <mxPoint x="1080" y="550" as="sourcePoint" />
            <mxPoint x="835.0954891121341" y="727.7465412525883" as="targetPoint" />
          </mxGeometry>
        </mxCell>
        <mxCell id="FpNZG0VmVVz_sjIysyUu-227" value="&lt;span style=&quot;border-bottom: 1px dotted&quot;&gt;test_id&lt;/span&gt;" style="ellipse;whiteSpace=wrap;html=1;align=center;fontSize=10;" vertex="1" parent="1">
          <mxGeometry x="920" y="905" width="100" height="40" as="geometry" />
        </mxCell>
        <mxCell id="FpNZG0VmVVz_sjIysyUu-228" value="" style="endArrow=none;html=1;rounded=0;fontSize=12;exitX=1;exitY=1;exitDx=0;exitDy=0;entryX=0.5;entryY=0;entryDx=0;entryDy=0;" edge="1" parent="1" source="FpNZG0VmVVz_sjIysyUu-237" target="FpNZG0VmVVz_sjIysyUu-227">
          <mxGeometry relative="1" as="geometry">
            <mxPoint x="784.9045108878659" y="772.2534587474117" as="sourcePoint" />
            <mxPoint x="1080" y="900" as="targetPoint" />
          </mxGeometry>
        </mxCell>
        <mxCell id="FpNZG0VmVVz_sjIysyUu-237" value="Tested" style="shape=associativeEntity;whiteSpace=wrap;html=1;align=center;rounded=0;shadow=0;sketch=0;fontSize=12;" vertex="1" parent="1">
          <mxGeometry x="800" y="735" width="140" height="60" as="geometry" />
        </mxCell>
        <mxCell id="FpNZG0VmVVz_sjIysyUu-238" value="" style="endArrow=none;html=1;rounded=0;fontSize=12;exitX=1;exitY=0.5;exitDx=0;exitDy=0;entryX=0;entryY=0.5;entryDx=0;entryDy=0;" edge="1" parent="1" source="FpNZG0VmVVz_sjIysyUu-237" target="FpNZG0VmVVz_sjIysyUu-162">
          <mxGeometry relative="1" as="geometry">
            <mxPoint x="750" y="597.5" as="sourcePoint" />
            <mxPoint x="810" y="745" as="targetPoint" />
          </mxGeometry>
        </mxCell>
        <mxCell id="FpNZG0VmVVz_sjIysyUu-239" value="&lt;span style=&quot;border-bottom: 1px dotted&quot;&gt;center_id&lt;/span&gt;" style="ellipse;whiteSpace=wrap;html=1;align=center;fontSize=10;" vertex="1" parent="1">
          <mxGeometry x="1010" y="860" width="100" height="40" as="geometry" />
        </mxCell>
        <mxCell id="FpNZG0VmVVz_sjIysyUu-240" value="" style="endArrow=none;html=1;rounded=0;fontSize=12;exitX=1;exitY=0.75;exitDx=0;exitDy=0;entryX=0.5;entryY=0;entryDx=0;entryDy=0;" edge="1" parent="1" source="FpNZG0VmVVz_sjIysyUu-237" target="FpNZG0VmVVz_sjIysyUu-239">
          <mxGeometry relative="1" as="geometry">
            <mxPoint x="950" y="805" as="sourcePoint" />
            <mxPoint x="980" y="915" as="targetPoint" />
          </mxGeometry>
        </mxCell>
      </root>
    </mxGraphModel>
  </diagram>
</mxfile>
